<svg width="265" height="219" xmlns="http://www.w3.org/2000/svg" xmlns:xlink="http://www.w3.org/1999/xlink" xml:space="preserve" overflow="hidden"><defs><clipPath id="clip0"><rect x="778" y="1312" width="265" height="219"/></clipPath></defs><g clip-path="url(#clip0)" transform="translate(-778 -1312)"><path d="M910.5 1528.5C851.405 1528.5 803.5 1480.59 803.5 1421.5 803.5 1362.41 851.405 1314.5 910.5 1314.5 969.594 1314.5 1017.5 1362.41 1017.5 1421.5 1017.5 1480.59 969.594 1528.5 910.5 1528.5Z" stroke="#000000" stroke-width="4.58333" stroke-linejoin="round" stroke-miterlimit="10" fill="#FFFFFF" fill-rule="evenodd"/><path d="M780.5 1421.5 838.966 1421.5" stroke="#000000" stroke-width="4.58333" stroke-linejoin="round" stroke-miterlimit="10" fill="none" fill-rule="evenodd"/><path d="M0 0 32.9935 61.8245" stroke="#000000" stroke-width="4.58333" stroke-linecap="round" stroke-linejoin="round" stroke-miterlimit="10" fill="none" fill-rule="evenodd" transform="matrix(-1 0 0 1 871.493 1359.5)"/><path d="M872.5 1360.5 949.753 1482.67" stroke="#000000" stroke-width="4.58333" stroke-linecap="round" stroke-linejoin="round" stroke-miterlimit="10" fill="none" fill-rule="evenodd"/><path d="M0 0 32.9935 61.8245" stroke="#000000" stroke-width="4.58333" stroke-linecap="round" stroke-linejoin="round" stroke-miterlimit="10" fill="none" fill-rule="evenodd" transform="matrix(-1 0 0 1 982.493 1421.5)"/><path d="M981.5 1421.5 1039.97 1421.5" stroke="#000000" stroke-width="4.58333" stroke-linejoin="round" stroke-miterlimit="10" fill="none" fill-rule="evenodd"/><path d="M1039.5 1406.5 1039.5 1435.27" stroke="#000000" stroke-width="6.875" stroke-linejoin="round" stroke-miterlimit="10" fill="none" fill-rule="evenodd"/><path d="M781.5 1406.5 781.5 1435.27" stroke="#000000" stroke-width="6.875" stroke-linejoin="round" stroke-miterlimit="10" fill="none" fill-rule="evenodd"/></g></svg>